<svg xmlns="http://www.w3.org/2000/svg" width="600" height="400" viewBox="0 0 600 400"><rect width="100%" height="100%" fill="#EEE"/><path fill="#31343C" d="M184.23 163.1H159.3V98.4h21.87q11.41 0 17.81 4.45 6.4 4.44 6.4 13.28 0 4.49-2.38 8.02-2.37 3.54-6.91 5.31 5.83 1.25 8.74 5.34 2.91 4.08 2.91 9.46 0 9.29-6.14 14.06-6.13 4.78-17.37 4.78m.98-28.62h-12.93v18.67h11.95q5.16 0 7.87-2.25 2.71-2.24 2.71-6.64 0-4.75-2.31-7.26-2.31-2.52-7.29-2.52m-12.93-26.08v17.11h9.33q5.2 0 8-2.13 2.8-2.14 2.8-6.22 0-4.49-2.82-6.62-2.83-2.14-8.42-2.14zm85.53 54.7h-12.97q-.71-1.64-1.22-3.47-.51-1.82-.74-3.73-2 3.51-5.26 5.82-3.27 2.31-7.8 2.31-7.55 0-11.64-3.88-4.09-3.89-4.09-10.6 0-7.07 5.44-10.96 5.45-3.88 15.89-3.88h7.24v-3.82q0-3.47-1.82-5.38t-5.38-1.91q-3.15 0-4.86 1.53t-1.71 4.24l-12.53-.04-.05-.27q-.31-6.08 5.29-10.5 5.6-4.43 14.71-4.43 8.62 0 13.99 4.38 5.38 4.38 5.38 12.46v19.87q0 3.37.51 6.35t1.62 5.91m-24.84-8.66q3.43 0 6.09-1.69 2.67-1.69 3.6-3.91v-6.8h-7.24q-4.13 0-6.27 2.06-2.13 2.07-2.13 5 0 2.4 1.6 3.87t4.35 1.47m32.31-39.42h12.08l.58 6.89q2.4-3.69 5.91-5.73 3.51-2.05 7.87-2.05 7.28 0 11.37 4.58t4.09 14.35v30.04h-13.02v-29.99q0-4.85-1.96-6.87-1.95-2.02-5.9-2.02-2.58 0-4.63 1.04-2.04 1.05-3.42 2.96v34.88h-12.97zm51.36 0h12.09l.58 6.89q2.4-3.69 5.91-5.73 3.51-2.05 7.86-2.05 7.29 0 11.38 4.58 4.08 4.58 4.08 14.35v30.04h-13.01v-29.99q0-4.85-1.96-6.87t-5.91-2.02q-2.58 0-4.62 1.04-2.04 1.05-3.42 2.96v34.88h-12.98zm72.87 49.01q-10.39 0-16.61-6.66-6.22-6.67-6.22-16.93v-1.78q0-10.71 5.88-17.64 5.89-6.93 15.8-6.89 9.73 0 15.11 5.87 5.37 5.86 5.37 15.86v7.07h-28.7l-.09.26q.36 4.76 3.18 7.82 2.82 3.07 7.66 3.07 4.31 0 7.16-.87 2.84-.86 6.22-2.73l3.51 8q-2.94 2.4-7.69 3.98-4.75 1.57-10.58 1.57m-1.15-39.9q-3.6 0-5.69 2.76-2.09 2.75-2.58 7.24l.14.22h15.9v-1.15q0-4.14-1.93-6.6-1.93-2.47-5.84-2.47m54.7-9.46-1.38 11.51-4.75-.14q-2.89 0-4.76 1.2t-2.84 3.38v32.48H416.4v-48.08h12.04l.58 7.11q1.68-3.77 4.37-5.89 2.69-2.11 6.2-2.11.98 0 1.8.16t1.67.38M168.99 244.68v10H142.2v18.48h31.32v9.96h-44.3v-64.7h44.21v10H142.2v16.26zm22.31-9.64 7.19 15.28h.27l7.38-15.28h14.66l-14.49 23.77 14.98 24.31h-14.62l-7.86-15.96-7.87 15.96h-14.66l14.97-24.31-14.53-23.77zm76.78 48.08H255.1q-.71-1.65-1.22-3.47t-.73-3.73q-2 3.51-5.27 5.82-3.26 2.31-7.8 2.31-7.55 0-11.64-3.89t-4.09-10.6q0-7.06 5.45-10.95 5.44-3.89 15.88-3.89h7.25v-3.82q0-3.47-1.83-5.38-1.82-1.91-5.37-1.91-3.16 0-4.87 1.54-1.71 1.53-1.71 4.24l-12.53-.04-.04-.27q-.31-6.09 5.28-10.51 5.6-4.42 14.71-4.42 8.62 0 14 4.38 5.37 4.37 5.37 12.46v19.86q0 3.38.52 6.36.51 2.97 1.62 5.91m-24.84-8.67q3.42 0 6.09-1.69 2.66-1.69 3.6-3.91v-6.8h-7.25q-4.13 0-6.26 2.07-2.14 2.07-2.14 5 0 2.4 1.6 3.86 1.6 1.47 4.36 1.47m32.52-39.41h12.05l.53 6.35q2.31-3.46 5.8-5.35t8.06-1.89q4.62 0 7.91 2.04 3.29 2.05 4.98 6.18 2.22-3.87 5.77-6.04 3.56-2.18 8.36-2.18 7.11 0 11.22 4.91t4.11 14.95v29.11h-12.98v-29.15q0-5.47-1.77-7.6-1.78-2.13-5.29-2.13-2.76 0-4.78 1.22t-3.22 3.4q0 .84.04 1.44.05.6.05 1.22v31.6h-12.93v-29.15q0-5.34-1.78-7.53-1.78-2.2-5.33-2.2-2.62 0-4.6 1t-3.27 2.82v35.06h-12.93zm122.11 24.44v.93q0 10.66-4.93 17.15-4.94 6.49-13.78 6.49-3.78 0-6.71-1.4t-5.02-4.11v23.06H354.5v-66.56h11.69l.75 5.69q2.13-3.16 5.13-4.87t7-1.71q8.93 0 13.87 6.98 4.93 6.97 4.93 18.35m-12.98.93v-.93q0-6.8-2.26-11.02-2.27-4.22-6.93-4.22-2.94 0-5 1.2-2.07 1.2-3.27 3.42v21.06q1.2 2.04 3.27 3.11 2.06 1.07 5.08 1.07 4.71 0 6.91-3.69t2.2-10m34.62-46.61v69.32h-12.98V213.8zm31.94 70.25q-10.39 0-16.61-6.67-6.22-6.66-6.22-16.93v-1.77q0-10.71 5.88-17.64 5.89-6.94 15.8-6.89 9.73 0 15.11 5.86 5.37 5.87 5.37 15.87v7.06h-28.7l-.09.27q.36 4.75 3.18 7.82t7.66 3.07q4.31 0 7.16-.87 2.84-.87 6.22-2.73l3.51 7.99q-2.94 2.4-7.69 3.98t-10.58 1.58m-1.15-39.9q-3.6 0-5.69 2.75-2.09 2.76-2.58 7.24l.14.23h15.91v-1.16q0-4.13-1.94-6.6-1.93-2.46-5.84-2.46"/></svg>