<svg xmlns="http://www.w3.org/2000/svg" width="600" height="400" viewBox="0 0 600 400"><rect width="100%" height="100%" fill="#545454"/><path fill="#E6E6E6" d="M165.41 142.415c-5.56 0-15.2.27-21.85.4-1.43 0-2.92.07-4.35.07-6.51 0-12.96-.27-16.76-.47v2.78c8.75.41 10.38 1.83 10.38 11.94v68.96c0 10.11-1.56 11.54-10.38 11.95v2.78c4.68-.27 13.17-.41 21.38-.41 6.24 0 15.95.41 20.29.41 34.96 0 55.32-20.02 55.32-50.29 0-31.02-17.45-48.12-54.03-48.12m-.13 2.51c22.39 0 31.08 15 31.08 46.15 0 30.27-7.53 47.24-30.95 47.24-8.62 0-10.45-2.24-10.45-11.95v-69.5c0-9.57 1.83-11.94 10.32-11.94m81.71-11.88c-7.8 0-12.69 4.07-12.69 10.72 0 6.72 4.89 10.8 12.69 10.8 7.67 0 12.63-4.08 12.63-10.8 0-6.65-4.96-10.72-12.63-10.72m10.93 34.34c-5.84 1.36-12.56 1.97-20.29 1.97-2.79 0-5.7-.2-8.62-.47v2.92c6.72 0 8.89 3.93 8.89 12.28v43.84c0 7.74-2.45 9.98-8.89 9.98v2.92c3.66-.14 12.01-.54 19.2-.54 7.27 0 15.07.4 18.6.54v-2.92c-6.51 0-8.89-2.24-8.89-9.98Zm48.05-.4c-9.36 0-16.15 1.96-21.1 4.75-4.55 2.64-7.81 6.51-7.81 11.6 0 6.11 3.8 10.73 9.84 10.73 6.86 0 11.34-4.21 11.34-9.98 0-5.63-3.26-9.23-8.22-10.93 2.51-2.44 6.59-3.39 9.91-3.39 8.21 0 11.34 5.16 11.34 12.42v10.86c0 5.97-8.01 8.62-18.26 12.49-12.9 4.75-19.55 10.38-19.55 20.43 0 10.11 7.2 15.81 17.58 15.81 7.81 0 15.75-3.46 20.5-11.27.07 5.98 3.19 11.27 13.37 11.27 7.06 0 11.67-1.7 15.88-5.09l-1.42-2.38c-1.57 1.23-3.13 2.38-5.09 2.38-2.24 0-2.99-1.7-2.99-6.18v-37.8c0-9.71-.88-15.27-4.96-19.48-4.48-4.61-11.4-6.24-20.36-6.24m5.3 60.27c-2.92 4.14-5.98 5.63-9.37 5.63-4.95 0-8.69-3.12-8.69-10.79 0-8.35 4.55-12.9 9.44-16.5 4.68-2.91 7.33-4.75 8.62-6.85Zm81.24-60.27c-8.76 0-15.48 5.9-18.8 13.37v-12.97c-5.84 1.36-12.56 1.97-20.3 1.97-2.78 0-5.7-.2-8.61-.47v2.92c6.71 0 8.89 3.93 8.89 12.28v43.84c0 7.74-2.45 9.98-8.89 9.98v2.92c3.8-.14 12.28-.54 19.88-.54 8.76 0 17.78.4 22.06.54v-2.92c-8.76 0-13.03-2.44-13.03-11.4v-36.79c0-7.46 5.22-16.69 12.62-17.91.68-.21 1.36-.34 1.97-.34.68 0 1.29.13 1.83.34-3.46 2.3-6.11 5.63-6.11 10.72 0 5.43 3.87 8.96 10.39 8.96 6.51 0 10.79-4.82 10.79-11.68 0-6.24-3.66-12.82-12.69-12.82m74.39 2.44c-3.74 0-9.17-.14-13.44-.54v2.92c6.24.4 10.31 3.86 10.31 11.06 0 2.98-.74 6.65-2.24 11.06l-9.57 26.81-17.03-41.06c-.68-1.63-1.02-2.92-1.02-3.94 0-3.87 4.28-3.93 8.82-3.93v-2.92c-5.56.47-11.87.88-19.27.88-6.31 0-13.03-.27-19.07-.88v2.92c2.03 0 5.29.67 8.62 7.8l29.45 66.99-2.31 6.72c-2.64 7.67-7.05 11.06-12.62 11.06-.81 0-2.24 0-3.19-.27 4.55-1.63 6.92-5.23 6.92-8.89 0-5.84-4.2-8.82-10.38-8.82-6.72 0-11.06 3.66-11.06 9.36 0 8.01 8.41 11.2 15.06 11.2 5.43 0 9.37-1.15 12.15-3.46 2.45-2.04 4.35-5.16 6.04-9.91l5.36-14.93 19.55-54.91c2.92-8.28 6.11-11.06 9.57-11.94v-2.92c-2.44.4-6.92.54-10.65.54"/></svg>