<svg xmlns="http://www.w3.org/2000/svg" width="600" height="400" viewBox="0 0 600 400"><rect width="100%" height="100%" fill="#EEE"/><path fill="#31343C" d="M180.075 159.38v66.12h-13.22l-26.7-45.18-.27.04v45.14h-13.26v-66.12h13.26l26.7 45.14.27-.04v-45.1zm9.26 42.05v-.95q0-10.99 6.13-18.01 6.13-7.01 16.98-7.01 10.9 0 17.08 6.99 6.17 6.99 6.17 18.03v.95q0 11.08-6.15 18.05t-17 6.97q-10.9 0-17.06-6.97-6.15-6.97-6.15-18.05m13.21-.95v.95q0 6.72 2.37 10.79 2.36 4.06 7.63 4.06 5.13 0 7.51-4.09 2.38-4.08 2.38-10.76v-.95q0-6.54-2.4-10.67-2.41-4.13-7.59-4.13-5.13 0-7.51 4.15-2.39 4.16-2.39 10.65m43.83-36.15h13.26v12.04h8.26v9.31h-8.26v25.02q0 2.86 1.18 4.08 1.18 1.23 3.17 1.23 1.05 0 1.8-.11.75-.12 1.75-.39l1.13 9.58q-2 .68-3.9 1.02-1.91.34-4.14.34-6.85 0-10.55-3.77-3.7-3.76-3.7-11.94v-25.06h-7.18v-9.31h7.18zm42.91-9.67v27.93q2.31-3.36 5.67-5.25 3.36-1.88 7.45-1.88 7.68 0 12.06 5.11t4.38 15.78v29.15h-13.26v-29.24q0-5.73-2.02-8.11t-6.02-2.38q-2.72 0-4.81.97-2.09.98-3.45 2.75v36.01h-13.26v-70.84zm53.49 21.71v49.13h-13.26v-49.13zm0-21.71v9.94h-13.26v-9.94zm10.67 21.71h12.35l.59 7.03q2.46-3.76 6.04-5.85 3.59-2.09 8.04-2.09 7.45 0 11.63 4.68 4.17 4.67 4.17 14.66v30.7h-13.3v-30.65q0-4.95-2-7.02-2-2.06-6.04-2.06-2.63 0-4.72 1.06-2.09 1.07-3.5 3.02v35.65h-13.26zm50.68 25.93v-.96q0-11.62 5.06-18.75 5.07-7.13 14.19-7.13 4.14 0 7.27 1.86t5.36 5.31l1.04-6.26h11.45v48.9q0 9.58-6.29 14.83-6.29 5.24-17.51 5.24-3.72 0-7.9-1.02t-7.72-2.79l2.45-9.9q3.04 1.45 6.2 2.2t6.88.75q5.45 0 8.02-2.27 2.56-2.27 2.56-7.08v-4.45q-2.18 2.77-5.13 4.22t-6.77 1.45q-9.03 0-14.1-6.65-5.06-6.65-5.06-17.5m13.26-.96v.96q0 6.44 2.18 10.14 2.18 3.71 7.08 3.71 3.05 0 5.16-1.12 2.11-1.11 3.38-3.24v-21.35q-1.27-2.22-3.38-3.45-2.11-1.22-5.07-1.22-4.85 0-7.1 4.31t-2.25 11.26m55.99 12.53v11.63h-13.26v-11.63z"/></svg>